<svg preserveAspectRatio="xMidYMid meet" id="comp-jo5hz53nsvgcontent" data-bbox="18.741 21.16 4457.436 1897.724" viewBox="18.741 21.16 4457.436 1897.724" height="194" width="452" xmlns="http://www.w3.org/2000/svg" data-type="color" role="img">
    <g>
        <path d="M2381 1901c-6-11-11-28-11-39 0-10-9-27-21-38-29-26-49-67-49-101 0-45-13-57-54-49-29 6-42 17-72 61-38 58-77 95-100 95-21 0-18-7 31-72s53-76 30-84c-24-9-18-19 18-29 28-9 39-24 92-125 82-157 93-157 97-3 3 111 4 119 26 128 27 12 28 21 2 28-24 6-27 53-6 83 25 33 40 2 46-94 4-71 8-87 22-90 12-2 19 5 24 23 6 25 7 25 30 10 49-32 77-16 88 49 9 49 25 36 34-30 8-56 35-73 46-29 6 24 7 25 31 9 41-27 68-15 86 38l15 47 12-33c7-18 27-50 45-71l34-39 34 20c31 18 34 24 37 75 2 29 7 58 12 63 13 13 30-28 38-91 7-58 29-82 39-44 4 15 13 21 35 21 25 0 29 3 23 18-4 9-10 37-13 60-5 41-4 44 19 40 13-2 26-12 29-23 16-61 81-126 108-108 27 17 35 39 28 76-6 30-11 37-31 37-28 0-42 17-26 33 15 15 57-9 70-42 6-14 14-65 19-113 5-47 18-103 28-125 16-31 24-38 49-38 29 0 30 1 29 50-1 29-13 76-28 112-28 67-36 158-13 151 17-6 46-68 55-119 10-58 36-64 53-12 6 21 22 53 34 71l23 33 10-30c12-34 32-42 32-13 0 21-36 82-59 99-24 19-78 16-90-4-8-15-12-16-22-5-20 19-66 15-82-8-13-19-14-19-43 11-24 25-34 29-58 25-16-4-37-13-46-21-15-13-20-13-47 0-52 26-82-3-83-78l-1-32-21 40c-29 56-59 87-78 79-8-4-34-6-57-5-24 1-52-3-63-9-13-7-33-7-62-1-24 6-55 12-69 15-25 5-27 11-33 75-7 71-21 95-52 89-34-6-39-33-23-112l16-74-24 9c-13 5-44 9-69 9h-44v58c0 31-6 68-13 82-16 32-52 38-66 11zm236-63c-2-13-4-5-4 17-1 22 1 32 4 23 2-10 2-28 0-40zm843-147c0-52-14-59-28-14-12 40-9 53 14 53 10 0 14-12 14-39zm-558 3c10-21 9-27-2-34-12-7-12-12-2-22 17-17 15-38-4-38-20 0-47 66-40 96 8 32 33 30 48-2zm-374-43c4-39-16-39-35-1-14 28-8 42 15 38 11-2 18-15 20-37zm192 14c0-8-7-15-15-15s-15 7-15 15 7 15 15 15 15-7 15-15zm510-24c14-26 13-31-6-31-8 0-12 5-9 10 3 6 2 10-3 10-6 0-12 7-16 15-8 22 21 19 34-4zm-931-28c-1-21-4-51-8-68l-7-30-21 40c-33 64-36 83-16 88 47 12 53 8 52-30zm1075-136c5-21 3-28-6-25-7 3-14 20-16 39-4 40 12 30 22-14z" fill="#330c1c" data-color="1"></path>
        <path d="M778 1879c-22-13-24-81-4-98 17-15 68-11 73 5 2 6-10 14-27 17-22 5-30 12-30 27 0 26 19 34 53 21 23-9 26-16 25-53v-43l-42-1c-22-1-65-5-93-9-51-7-53-9-59-44-3-20-7-40-8-46-2-5-15 14-30 43-14 28-31 52-36 52-6 0-10-30-11-67v-68l-20 45c-11 25-27 53-36 62-18 20-68 24-79 6-12-19-8-93 6-127 21-51 32-36 28 36-4 82 12 92 42 26 34-76 36-78 64-81 20-3 28 2 34 19 6 15 11 18 16 11 4-7 20-12 36-12 26 0 30 4 35 38 4 20 7 44 9 52 1 9 10 2 22-19 10-19 34-51 52-72 31-35 37-38 83-36l50 2-6 75c-15 192-16 198-40 224-26 28-74 34-107 15zm95-173c3-7 8-34 12-59 7-48-2-63-33-53-34 11-67 97-45 119 12 12 61 7 66-7z" fill="#330c1c" data-color="1"></path>
        <path d="M3794 1845c-39-31-64-90-64-153 0-102 90-213 249-308l79-47 6-51c8-67 8-126 0-126-4 0-28 20-54 44-63 59-112 73-183 52-60-17-99-54-117-108-6-21-15-38-18-38-4 0-20 20-35 45-34 53-102 115-155 141-26 14-59 19-112 18-92 0-140-21-140-60 0-24 2-26 33-20 97 21 105 20 136-13 74-79 46-213-75-364-25-31-34-34-34-10 0 32-139 298-185 356-26 31-67 69-92 83-87 52-250 40-269-18-10-34 9-42 65-27 91 23 132-20 132-137 0-78-36-164-98-234l-40-44-7 29c-10 41-94 231-124 280-80 131-164 158-235 74l-34-39-27 35c-39 51-79 68-157 68-107 0-171-49-201-153-3-9-24 15-56 61-56 84-93 109-163 109-36 0-47-6-79-39-24-25-47-66-65-115-15-42-29-76-30-76-2 0-16 21-31 48-39 65-95 137-119 149-11 6-36 19-55 29-27 14-55 19-120 18-130-1-208-43-258-137-25-49-27-60-27-177 0-153 19-210 97-295 77-84 125-101 247-89l68 6 17 72c20 89 20 128 0 169-38 75-89 101-142 73-37-19-42-33-42-106 0-50 5-65 34-109l35-51h-38c-58 0-101 34-140 112-61 122-55 300 14 384 70 85 174 108 257 55 25-16 53-40 62-53 39-55 69-104 97-161l31-61 9-235c8-248 22-343 64-472 58-173 137-238 239-195 47 20 60 59 53 159-10 137-60 286-201 592-42 91-46 107-46 175 0 82 21 177 49 225 53 92 140-4 242-265 58-150 124-232 225-279 77-37 197-21 223 27 18 34 13 128-9 173-20 39-91 99-117 99-33 0-25-33 21-77 46-46 70-99 59-131-10-30-46-62-68-62-11 0-45 15-75 33-93 55-145 155-157 304-7 85 11 144 57 188 24 23 35 27 64 22 19-3 45-13 59-22 36-23 86-123 103-206 19-89 29-109 57-109 43 0 51 13 38 66-6 27-12 83-13 126-2 63 0 80 16 97 11 12 27 21 37 21 36 0 101-107 166-274 31-79 36-107 43-213 7-136 16-156 64-151l31 3 3 106 3 106 58 67c108 125 149 223 136 321-2 22-2 33 2 25 3-8 16-25 29-36 32-31 99-169 139-286 29-88 33-109 28-172-7-95 12-139 60-134l32 3 1 96c0 109 0 109 95 224 80 98 99 142 99 239 0 78 0 79 20 61 26-24 107-183 165-325 50-123 67-150 97-150 23 0 23 9-8 157-19 92-25 145-22 205 3 76 5 81 36 109 21 19 43 29 64 29 67 0 174-156 213-310 9-36 30-100 47-142 23-61 34-78 49-78 11 0 22 7 26 16 3 9-6 87-22 173-15 86-29 210-32 276l-4 120 60-63c44-47 78-99 128-195 53-102 72-132 88-132 33 0 28 28-19 129-60 128-120 218-199 294-60 57-66 67-72 115-39 303-142 467-292 467-36 0-56-7-79-25zm143-57c7-5 15-19 19-31s20-34 35-48c21-20 29-37 29-61 0-19 4-38 9-43 5-6 12-29 15-52 3-24 9-61 12-83s3-40-1-40c-30 0-201 173-216 218-32 96-6 169 55 156 17-3 36-11 43-16zM1395 856c24-36 29-89 12-121l-15-29-31 50c-35 56-37 71-15 102 19 28 30 28 49-2zm446-318c83-203 117-350 99-419-11-41-25-50-56-38-44 16-92 118-120 254-16 81-34 348-26 390 5 28 5 27 30-21 14-27 47-102 73-166z" fill="#330c1c" data-color="1"></path>
        <path d="M240 1793c-8-3-28-15-43-26-28-19-28-19-51 2-44 41-126 22-126-29 0-34 15-44 78-55l42-7v-101c0-112 14-155 61-190 38-27 114-26 145 4 28 26 33 79 9 99-13 11-15 7-15-27 0-21-5-44-12-51-21-21-74-14-107 14l-31 26v276l34 21c50 31 98 28 130-10 17-20 26-43 26-64 0-37 17-56 31-34 12 20 11 76-2 102-21 40-51 57-104 56-27 0-57-3-65-6zm-133-53c1-11-4-20-13-20-8 0-14 9-14 20s6 20 13 20 13-9 14-20z" fill="#330c1c" data-color="1"></path>
        <path d="M1150 1737c-11-18-20-43-20-56 0-20-2-21-15-11-8 7-15 18-15 24 0 26-56 66-91 66-49 0-69-25-69-84s36-99 84-94c26 3 31 8 34 33 3 30-10 50-53 80-15 10-17 17-9 25 34 34 84-23 93-106 7-63 25-81 41-40 10 29 20 32 38 14 19-19 25-1 14 42-5 22-8 49-5 60 10 39 34 20 65-50 17-38 35-70 41-70s7 24 3 64-3 67 4 71c11 7 50-52 50-77 0-20 48-48 83-48 18 0 27 7 31 27 9 34-11 83-35 83s-34 18-19 35c18 22 47 2 72-51 24-47 38-56 38-23 0 25-16 57-43 87-27 29-86 30-112 2-13-15-21-17-31-9-7 6-30 9-51 8-21-2-53 4-71 14l-33 16-19-32zm-120-119c0-13-17-9-34 8-23 22-8 39 15 18 10-9 19-21 19-26zm377 16c1-18-2-23-9-16-6 6-8 18-5 26 9 22 12 20 14-10z" fill="#330c1c" data-color="1"></path>
        <path d="M1640 1742c-23-23-30-39-30-68 0-32 7-44 46-81 37-34 48-52 55-90 15-76 69-118 115-88 43 28 19 123-36 140-31 10-21 70 18 118 20 23 25 22 50-13 15-19 17-28 8-24-10 4-17-3-22-20-9-36 1-56 29-56 52 0 60 59 16 119-31 42-16 56 32 29 21-12 39-25 39-30 0-4 5-8 10-8 18 0 11 36-11 56-16 14-43 21-108 26-47 4-107 10-133 14-43 6-49 4-78-24zm140-18c0-3-8-18-19-32-10-15-21-37-25-49-4-11-14-27-23-34-13-11-18-10-34 10-42 52-9 111 61 111 22 0 40-3 40-6zm29-236c13-21 0-49-23-47-7 0-6 2 2 6 20 8 14 26-8 20-17-4-20 0-20 29 0 31 2 33 19 23 10-7 23-21 30-31z" fill="#330c1c" data-color="1"></path>
        <path d="M487 1514c-4-4-7-16-7-26 0-14 6-19 23-16 14 2 22 10 22 23 0 20-25 32-38 19z" fill="#330c1c" data-color="1"></path>
        <path d="M1274 1505c-4-9-2-21 4-27 16-16 47-5 47 17 0 26-42 34-51 10z" fill="#330c1c" data-color="1"></path>
        <path d="M443 1253c-74-172-109-221-198-279-27-17-28-17-42 2-33 43-69 148-87 257-6 34-9 37-41 37-31 0-35-3-35-26 0-14 12-66 26-117 41-145 106-262 180-320 49-40 94-105 94-137 0-55-23-92-149-234-29-34-63-81-76-106-31-62-67-203-63-248 3-32 7-37 30-40 29-3 30-2 43 83 3 22 13 64 21 93l15 53 22-33c21-30 28-33 80-36 69-4 97 13 153 91 67 94 82 97 125 27 17-28 52-66 77-85 37-29 53-35 94-35 39 0 54 5 73 24l25 25 12-22c7-12 21-58 33-102 20-77 21-80 50-80s30 1 27 42c-3 57-51 188-93 258-19 31-62 88-96 126-134 149-133 188 13 356 42 49 83 102 91 118 9 17 19 32 23 35 12 9 73 259 66 275-4 11-15 15-33 13-24-3-28-10-44-73-36-144-65-205-141-290-91-103-137-173-145-219-6-36 14-156 26-156 11 0 43-61 36-68-3-4-66-7-140-7-154 0-170 6-136 54 35 49 61 114 61 154 0 57-24 99-109 189-71 76-74 81-56 94 28 20 113 51 183 65 69 15 120 6 225-38 33-13 63-23 69-21s-20 30-56 62-66 62-66 68c0 5-9 21-20 35s-29 55-40 91c-22 70-31 82-68 82-16 0-27-10-39-37z" fill="#330c1c" data-color="1"></path>
        <path d="M2598 1909c-24-14-23-75 2-139 27-69 26-88-2-56-19 21-34 26-78 28-43 2-55 0-55-12 0-10 12-16 32-18 24-2 34-10 41-32 20-56-7-90-40-52-36 41-48 81-47 159 2 103-5 125-39 121-23-2-28-9-30-37-2-23-14-44-36-65-26-24-35-42-41-83l-7-53h-48c-47 0-47 0-81 57s-83 103-96 90c-4-4 9-24 29-45 38-40 68-82 68-94 0-5-9-8-19-8-11 0-23-4-26-10-4-6 7-10 27-10 32 0 35-4 93-118 37-72 67-118 77-120 17-3 17 6 11 117l-6 121h32c19 0 30 4 26 10-3 6-18 10-31 10-24 0-25 3-19 33 11 49 21 71 39 86 13 11 17 9 27-15 7-16 15-67 18-114 4-49 10-84 16-82s9 24 7 50l-2 47 20-33c11-18 32-37 46-42 32-13 30-13 48 6 19 18 21 66 5 96-18 34 12 17 39-22 13-20 22-48 22-72 0-27 4-38 13-35 7 3 11 19 9 47l-3 42 34-36c19-20 41-36 49-36 39 0 61 67 38 111-6 10-7 19-2 19 14 0 39-32 56-73 21-51 53-78 91-74 23 1 31 8 33 25 4 23-13 52-29 52-5 0-3-11 6-24 13-20 13-25 1-35-19-16-39-6-59 28-21 36-22 84-1 102 22 18 46 1 60-42 17-49 33-49 27 0-5 33-3 41 10 41 25 0 60-77 54-115-7-40 8-68 23-45 6 8 8 23 6 32-6 25 7 30 30 13 30-22 36-18 19 15-19 37-19 84 0 100 21 18 42-2 70-67 37-82 105-101 105-30 0 37-14 54-53 65-20 6-23 11-16 30 6 16 16 22 38 22 43 0 71-49 71-126 1-141 56-252 99-200 15 18-9 116-45 188-22 43-23 53-14 88 7 24 17 40 26 40 19 0 56-83 59-132 1-21 5-41 8-44 12-12 27 8 22 29-4 15 3 31 21 51 15 15 30 42 33 59l7 31 23-49c13-28 26-45 28-38 6 17-33 89-59 107-25 18-64 21-73 7-3-5 5-11 17-13 31-4 37-55 11-87l-19-23-19 43c-25 59-44 79-72 79-18 0-27-8-35-31l-10-30-16 23c-36 55-87 65-120 23-19-24-20-24-37-5-10 11-29 20-42 20-31 0-54-50-43-92 13-44-18-36-37 10-8 20-22 45-31 55-18 20-48 23-55 5-3-10-9-8-24 5-27 23-59 22-77-5-14-20-17-20-33-6-10 8-42 18-71 22-43 6-53 4-58-9-9-22 0-28 36-27 25 1 31-4 38-31 24-90-27-88-74 3-13 27-17 54-15 116 2 65-1 84-16 102-14 17-22 19-35 11zm-170-50c-5-35-28-36-28-1 0 16 3 32 7 36 11 11 25-10 21-35zm199-25c2-58 2-58-12-29-18 39-20 98-2 93 7-3 13-27 14-64zm607-180c21-20 20-43-1-51-17-7-53 29-53 53 0 19 35 18 54-2zm-930-71c4-38 9-88 12-113l5-45-32 60c-18 33-43 84-55 113l-24 52h88l6-67zm1082-122c6-35 4-43-7-39-22 7-39 51-44 119l-5 64 24-50c14-27 28-70 32-94z" fill="#6a344d" data-color="2"></path>
        <path d="M800 1883c-40-15-53-69-22-96 23-21 33-21 58-2 18 14 17 15-16 12-32-2-35 1-38 27-4 31 10 46 45 46 30 0 55-41 58-94l1-43-30 12c-35 14-69 6-83-20-9-15-11-15-22-1-17 20-45 20-61 1-8-10-10-30-5-61 6-41 5-45-12-42-12 2-27 25-42 66-14 34-28 62-33 62-4 0-5-34-1-77 7-89-3-91-41-8-30 66-69 91-92 60-19-26-17-72 5-120 22-46 27-26 10 41-10 39-9 48 5 62 15 15 17 15 33-8 10-14 28-46 40-72 25-55 48-61 66-18 12 28 13 28 25 10 16-27 51-25 61 2 4 12 5 37 1 55-4 17-5 34-2 37 15 16 33 1 56-49 38-78 59-95 118-93 42 2 47 5 42 22-4 10-9 70-13 133-6 93-11 117-27 133-21 21-61 32-84 23zm79-172c17-33 21-109 7-120-31-26-96 34-96 89 0 49 68 73 89 31z" fill="#6a344d" data-color="2"></path>
        <path d="M3816 1848c-56-33-81-79-81-153 0-46 6-70 24-100 50-83 141-161 268-230l52-28 3-119c3-108 2-117-12-96-34 55-106 116-149 128-91 24-180-21-202-103s-22-83-48-35c-37 66-87 124-139 160-44 31-52 33-132 33-73 0-90-3-118-24-30-21-32-25-19-39 13-13 18-13 38 2 39 27 86 21 124-17 76-76 47-235-66-365-16-18-29-37-29-42 0-6-4-10-10-10-5 0-10 5-10 11 0 26-108 259-150 323-83 127-157 172-272 164-46-3-73-10-97-27-29-21-31-25-18-39 13-13 18-13 38 2 13 9 40 16 60 16 30 0 43-7 67-35 75-85 43-235-82-379l-33-38-28 78c-75 211-159 345-227 359-48 11-95-11-115-55-10-22-21-40-24-40-4 0-19 19-35 42-36 51-91 77-162 78-88 0-151-49-181-140l-17-52-29 53c-39 72-99 135-141 149-95 32-178-63-200-229l-7-52-17 40c-79 175-187 261-325 260-121-1-201-47-250-145-28-55-30-67-30-169 0-99 3-116 28-169 60-129 152-206 245-206 29 0 62 5 73 11 15 7 24 7 34-1 19-16 38-2 32 22-3 10 1 35 9 53 20 50 18 121-7 173-48 99-169 76-169-32 0-58 11-86 54-134 20-21 33-42 29-46-14-13-87-5-122 15-70 39-110 125-118 254-10 151 29 245 122 298 69 38 152 35 212-8 52-38 104-109 150-204l36-76-2-126c-3-174 16-364 49-494 35-139 61-196 111-246 34-34 45-39 87-39 91 0 122 55 102 183-23 154-75 300-196 555l-64 135 10 91c31 279 129 313 243 84 25-51 56-124 69-163 58-178 214-311 340-290 112 19 143 160 55 250-51 52-90 67-101 40-3-10 5-20 24-30 41-21 81-77 87-123 4-33 1-43-27-70-37-38-65-40-123-11-86 43-149 150-169 285-15 107 1 185 47 231 88 88 227-22 249-197 4-30 11-70 17-88 9-27 14-32 32-26 36 10 39 19 27 65-16 58-17 188-2 216 16 28 49 38 76 23 72-38 223-405 196-475-22-58-6-124 36-152 45-29 68 40 44 129-13 47 1 79 75 163 85 97 117 159 123 235 3 46 0 76-11 103-22 52-7 46 41-15 97-126 210-416 182-468-30-55 3-150 52-150 36 0 45 33 30 112-7 35-8 68-2 82 4 12 40 60 79 107 90 106 114 155 119 239 2 50-1 74-16 102-19 37-19 37 0 24 56-39 139-186 200-350 39-107 75-166 100-166 16 0 19 4 14 23-44 150-49 178-50 288-1 112 0 117 27 152 25 33 33 37 71 37 39 0 48-5 94-53 61-65 115-170 137-263 21-94 64-204 82-211 29-11 30 14 7 137-21 111-54 375-54 430 0 11 5 20 12 20 21 0 113-105 154-177 46-78 104-198 104-213 0-5 9-10 20-10 28 0 25 19-17 113-63 139-103 199-187 282l-82 80-13 100c-25 191-84 321-177 387-56 40-108 45-158 16zm148-64c55-57 106-219 106-342v-43l-47 33c-158 112-244 242-213 324 18 47 40 64 81 64 30 0 45-7 73-36zM1410 850c23-45 25-104 6-139l-13-23-27 28c-68 71-74 174-11 174 19 0 30-10 45-40zm361-127c121-262 179-442 179-553 0-73-2-81-24-95-72-47-147 89-180 322-26 189-32 393-10 393 2 0 18-30 35-67z" fill="#6a344d" data-color="2"></path>
        <path d="M240 1789c-14-6-35-20-47-31l-22-21-31 27c-38 31-73 33-100 6-43-43-19-75 56-74h56l-7-89c-9-107 5-167 47-202 32-27 85-40 123-31 31 8 58 57 49 91-10 42-25 40-18-3 8-50-12-72-68-72-32 0-46 6-68 30-28 30-29 33-32 167l-3 137 39 28c52 37 103 38 140 1 29-29 41-63 33-93-9-35 11-31 23 4 29 90-72 164-170 125zm-106-41c14-22-1-38-39-41-31-2-52 21-42 47 9 22 66 18 81-6z" fill="#6a344d" data-color="2"></path>
        <path d="M973 1745c-29-21-37-65-19-108 23-55 76-75 96-37 16 29-8 72-45 85-21 7-29 16-27 27 4 20 34 32 61 23 29-9 62-85 60-134-2-22 0-43 3-47 13-12 28 8 28 37 0 32 11 37 30 14 22-26 29-16 14 20-18 43-18 79 0 94 24 20 44 1 72-67 33-80 50-102 40-52-15 73-16 95-8 108 15 22 39 3 61-49 37-85 102-104 109-31 3 32-25 62-60 62-21 0-22 4-8 31 13 24 52 25 72 2 9-10 25-36 36-58 27-52 28-24 2 31-32 65-118 87-135 34-8-24-18-25-35-5-17 21-47 19-62-4-11-18-12-18-31 5-39 51-92 18-84-53 7-61-17-57-44 7-32 76-78 99-126 65zm55-87c17-17 15-48-5-55-17-7-53 29-53 53 0 17 41 19 58 2zm396-4c20-20 20-43 1-51-20-7-55 24-55 49 0 23 32 24 54 2z" fill="#6a344d" data-color="2"></path>
        <path d="M1665 1750c-32-12-48-38-47-72 1-46 18-72 63-97 37-21 39-25 39-69 0-56 23-89 66-98 87-17 82 100-6 136-34 14-34 22 2 98 25 52 42 61 70 36 28-26 52-84 40-96-16-16-34 1-26 25 6 19 5 20-10 8-22-18-20-38 4-51 25-13 60 3 60 28 0 22-38 83-62 100-26 19-13 32 32 32 30 0 43-6 59-27 12-14 24-24 26-21 3 3-4 17-15 31-24 30-81 45-119 30-18-7-35-6-56 3-34 15-90 17-120 4zm112-16l23-6-24-29c-13-16-30-45-36-66-18-56-26-59-59-25-72 71-9 154 96 126zm29-219c33-33 30-78-5-83-32-5-51 21-51 70 0 46 19 50 56 13z" fill="#6a344d" data-color="2"></path>
        <path d="M491 1511c-19-12-6-43 16-39 10 2 18 12 18 22 0 22-14 29-34 17z" fill="#6a344d" data-color="2"></path>
        <path d="M1290 1510c-18-11-4-42 17-38 10 2 19 10 21 19 4 19-19 31-38 19z" fill="#6a344d" data-color="2"></path>
        <path d="M445 1248c-13-62-65-175-93-200-15-14-49-43-77-63-27-21-43-36-35-32 8 3 49 20 90 38 129 55 197 50 375-25 33-14 36-14 20-1-98 75-117 95-145 146-16 31-36 80-43 110-14 52-16 54-50 57-33 3-36 1-42-30z" fill="#6a344d" data-color="2"></path>
        <path d="M46 1261c-4-5 5-49 19-96 14-48 25-92 25-97s15-42 34-83c26-56 55-95 130-173 85-89 96-105 96-137 0-55-34-118-103-193-101-107-103-110-129-165-24-48-68-206-68-241 0-17 36-40 49-32 5 3 12 32 15 63 10 78 36 170 52 184 11 9 14 6 14-19 0-47 42-76 99-68s101 42 148 116c48 75 78 81 111 21 38-68 104-128 148-135 54-9 92 7 109 46l13 33 22-50c12-27 26-77 32-110 11-65 28-91 52-82 23 9 20 37-14 146-33 107-68 169-150 261-154 174-154 218-3 381 46 49 91 110 105 140 32 67 91 276 83 289-5 8-55 15-55 8 0-2-9-45-20-97-26-128-68-208-161-307-43-45-87-100-98-122-39-76-23-170 41-252l20-25-49-9c-57-11-178-12-250-1l-52 7 25 27c63 68 94 190 61 248-7 12-49 61-95 109-126 131-164 201-186 344-11 70-14 75-38 78-14 2-29-1-32-7z" fill="#6a344d" data-color="2"></path>
        <path d="M2387 1903c-4-3-7-20-7-38 0-23-8-37-29-53-24-17-32-34-42-81l-11-59-48-4-48-3-27 53c-35 67-105 128-105 92 0-5 5-10 10-10 10 0 100-116 100-130 0-4-11-5-25-2-15 2-25 0-25-7 0-6 13-11 28-11 26 0 33-10 88-117 34-67 67-118 75-118 11 0 13 21 10 118l-3 117h26c14 0 26 5 26 10 0 6-12 10-26 10-24 0-25 3-19 33 17 86 47 117 67 69 7-15 14-65 17-112 4-50 10-84 16-82s9 24 7 50l-3 47 22-33c29-45 65-58 91-35 20 18 21 61 3 106-7 17-6 18 12 7 27-17 52-67 55-110 2-19 8-33 13-30 6 3 9 25 7 50l-3 45 20-32c26-42 55-57 81-43s35 52 21 91c-14 40-14 39 3 33 8-3 28-31 45-63 38-72 61-93 98-89 20 2 29 9 31 26 4 24-13 52-31 52-5 0-3-8 6-18 21-23 22-38 2-46-34-13-75 35-75 88 0 76 58 76 79 0 12-45 30-41 24 5-5 33-3 41 10 41 24 0 57-72 57-125 0-25 5-45 10-45 10 0 14 19 11 53-1 9 3 17 10 17s21-8 32-17c20-17 20-17 12 2-16 39-17 101-2 113 24 20 44 4 71-59 18-42 33-62 52-69 34-13 54 2 54 41 0 30-31 59-62 59-21 0-22 4-8 31 7 12 21 19 40 19 45 0 71-51 75-149 1-43 8-96 15-117 22-70 63-96 79-52 10 27 0 67-40 165-25 58-28 77-21 105 4 18 16 34 25 36 22 4 56-65 64-129 4-30 10-48 17-46 6 2 10 14 8 26-1 12 10 37 24 56s29 46 34 62l8 28 18-42c9-24 21-43 27-43 12 0 5 18-27 69-27 42-62 59-93 46-16-7-14-9 7-14 32-9 39-60 13-94l-18-24-30 61c-36 74-64 85-93 37l-19-31-13 24c-18 35-64 52-96 37-15-6-28-20-31-31-5-19-6-18-25 5-40 52-93 19-85-52 6-58-17-58-43 1-26 58-45 74-72 57-17-10-23-10-39 5-23 21-69 11-76-16-7-25-9-25-34-1-22 21-108 36-122 22-15-15 2-31 33-31 22 0 30-6 38-29 20-57-7-91-43-55-38 38-49 77-46 161 2 93-9 126-42 121-31-4-34-59-8-134 27-75 26-88-2-60-38 38-156 44-133 7 4-6 21-11 37-11 23 0 32-6 40-27 12-32 4-73-15-73-17 0-39 26-64 75-16 32-18 50-12 89 4 27 6 56 4 65-13 67-15 71-38 71-12 0-26-3-29-7zm41-41c2-24-1-32-12-32-12 0-16 10-16 36 0 45 24 42 28-4zm200-28c3-66-11-66-26 1-10 45-6 68 12 62 6-2 12-30 14-63zm617-205c0-34-35-32-55 4-13 24-13 29 0 37 21 13 55-12 55-41zm-945 9c0-7 5-52 11-101 6-48 9-93 7-99-3-9-108 192-108 208 0 2 20 4 45 4 29 0 45-4 45-12zm1088-180c3-29 1-38-10-38-22 0-39 47-44 125l-5 70 27-60c14-33 29-77 32-97z" fill="#82566a" data-color="3"></path>
        <path d="M805 1883c-47-11-61-72-21-98 13-8 31-13 40-9 24 9 19 20-10 19-18 0-29 7-35 22-17 46 50 72 86 33 10-11 20-42 23-70l5-50-34 14c-40 16-78 6-86-23-5-19-5-19-24 0-41 41-74 13-64-55 6-39 5-46-9-46-16 0-66 89-66 118 0 6-4 12-9 12-6 0-7-32-4-75 4-45 2-75-4-75-5 0-20 25-32 55-20 49-51 85-73 85-3 0-14-7-22-16-22-21-20-71 4-119l20-40-6 40c-3 22-8 51-10 65-6 31 9 55 29 47 9-3 28-33 43-66s35-63 43-66c16-6 41 19 41 42 0 8 7 6 21-8 35-35 54-21 54 41 0 75 24 80 55 13 32-66 68-103 101-103 15 0 31 5 34 10 5 8 12 7 23-2 14-11 15-10 8 7-5 11-10 65-13 120-5 117-16 151-54 170-15 8-29 14-31 14-2-1-12-3-23-6zm63-160c27-24 39-115 18-132-22-18-54-4-77 32-23 39-24 65-3 95 18 27 35 28 62 5z" fill="#82566a" data-color="3"></path>
        <path d="M3840 1859c-70-28-119-115-105-188 18-98 96-184 252-279l93-57v-91c0-50 3-107 7-125 6-32 3-30-43 31-30 40-64 72-88 84-44 21-130 25-164 7-41-22-74-78-81-136l-6-55-49 80c-78 129-151 179-259 180-88 0-160-41-129-72 9-9 16-7 30 5 26 23 87 22 122-3 21-15 32-34 41-74 22-98-2-172-95-297l-49-67-48 119c-87 215-176 337-273 374-63 24-160 17-205-14-30-21-31-25-17-39s17-14 35 2c26 24 87 23 120-1 81-60 58-248-44-362-18-20-38-47-44-59-12-22-17-13-71 121-32 80-70 165-84 189-48 83-108 123-166 111-34-6-80-55-80-84 0-28-12-22-45 23-47 65-77 82-150 86-53 4-70 1-100-18-47-29-80-74-97-132l-13-47-29 54c-40 77-100 142-142 154-97 27-163-45-197-216l-13-62-32 68c-43 89-122 177-187 207-115 54-279 16-343-79-48-72-57-104-56-212 0-78 5-112 22-155 27-69 84-143 140-184 38-27 52-31 105-30 34 1 73 2 87 4s32 1 40-1c11-3 14 3 13 25-1 17 2 35 8 42 17 20 23 118 10 157-27 79-109 111-156 61-44-48-24-155 39-213 14-14 26-28 26-32 0-14-47-18-86-8-62 18-94 47-127 117-38 82-49 225-24 313 31 103 112 168 210 169 102 0 177-64 252-215l48-96 2-192c3-215 14-313 50-453 48-183 110-264 202-264 34 0 46 5 68 32 27 32 27 35 22 128-8 140-50 270-182 550l-77 165 11 95c26 208 80 274 165 199 37-32 119-190 151-289 52-162 187-285 312-284 62 1 94 20 117 67 21 46 20 82-5 134-20 41-89 103-116 103-26 0-12-36 21-54 40-21 76-81 76-126 0-41-47-90-86-90s-109 36-139 72c-130 154-139 442-16 492 31 12 40 12 71 0 77-33 125-107 146-226 20-116 22-120 47-112 34 10 38 17 27 53-17 60-21 173-8 211 18 47 57 62 96 34 59-43 187-353 183-444-1-25-3-66-4-92-2-52 23-91 56-86 36 5 42 31 29 109-12 70-12 73 12 108 13 20 47 63 76 96s66 88 82 123c26 54 30 71 26 127-3 47-10 73-27 96-22 30-22 30-2 19 63-33 178-239 226-405 23-79 25-95 14-127-23-70 7-148 57-148 31 0 40 48 24 125-11 53-10 58 13 93 14 20 48 64 77 97s66 88 82 123c27 57 30 71 25 129-3 45-12 74-27 95-20 27-20 29-3 19 56-29 144-176 209-345 50-134 80-186 106-186 16 0 19 4 14 23-44 149-49 178-50 289-1 103 1 119 20 145 27 36 66 55 98 47 68-17 179-184 209-314 22-93 67-211 84-217 27-10 32 11 18 72-19 78-52 314-61 434l-7 93 28-18c52-34 136-148 191-259 30-60 54-115 54-122s9-13 20-13c12 0 20 7 20 16s-30 77-66 151c-59 120-74 143-145 214-43 43-83 79-88 79-4 0-12 33-15 73-24 241-113 413-235 455-40 14-48 14-81 1zm122-71c37-40 60-86 81-163 16-56 38-216 31-223-5-7-99 62-151 111-80 75-117 139-117 203-1 69 28 104 87 104 31 0 45-7 69-32zM1406 865c22-34 29-108 14-145-7-16-16-30-20-30-5 0-23 18-40 41-37 45-52 118-30 144 19 23 57 18 76-10zm370-152c162-348 217-581 153-639-18-16-22-16-53-1-68 32-121 192-146 436-11 110-14 301-4 301 3 0 26-44 50-97z" fill="#82566a" data-color="3"></path>
        <path d="M235 1783c-16-8-38-22-48-31-16-14-19-13-40 6-35 33-80 39-106 13s-26-36-1-61c22-22 60-26 92-9 21 11 21 11 14-85-10-145 16-212 90-236 76-26 145 20 128 85-10 40-23 39-17-2 6-52-14-77-61-76-40 1-80 23-95 51-6 10-11 79-12 153l-1 134 33 27c35 30 92 38 130 18 29-16 58-80 48-107-5-13-4-25 1-28 12-7 28 53 22 82-6 32-47 69-83 77-45 9-60 7-94-11zm-101-35c19-27 9-39-34-41-36-2-57 20-47 47 10 24 63 21 81-6z" fill="#82566a" data-color="3"></path>
        <path d="M969 1741c-46-37-21-143 37-157 30-8 44 7 44 48 0 29-31 58-62 58-24 0-23 15 2 40 14 14 25 17 42 11 32-11 68-85 68-137 0-24 4-45 9-48 10-7 21 17 21 45 0 24 13 24 36 2 17-17 17-17 10 7-24 83-13 130 27 114 16-6 51-72 63-118 9-38 25-32 16 7-12 59-9 101 10 105 12 2 26-14 48-58 34-67 68-92 95-70 34 28 2 100-45 100-22 0-26 20-8 38 32 32 76 5 109-66 10-20 18-31 18-24 2 22-38 90-61 106-34 24-65 20-89-13-21-28-22-28-40-10-24 24-46 24-61 0-11-18-12-18-31 5-39 51-92 18-84-53 6-59-16-57-43 3-35 81-83 104-131 65zm59-84c6-5 12-20 12-33 0-33-34-32-56 1-29 45 0 66 44 32zm400-5c17-22 11-46-11-50-22-5-46 25-47 56 0 20 4 22 23 17 12-4 28-14 35-23z" fill="#82566a" data-color="3"></path>
        <path d="M1663 1750c-30-12-45-44-41-88 2-31 11-43 51-72 43-32 47-39 47-75 0-47 21-82 57-96 34-13 73 12 73 45 0 27-48 81-80 91-16 5-19 12-14 33 7 30 49 108 63 117 5 3 26-14 46-37 38-45 43-80 11-86-15-3-18 0-13 17 5 22-7 29-19 10-3-6 2-20 13-30 21-21 48-17 57 7 8 21-17 75-47 103-33 30-27 41 23 41 30 0 43-6 59-27 12-14 24-24 26-21 3 3-4 17-15 31-24 30-76 43-117 30-19-6-40-5-63 3-41 15-86 16-117 4zm114-16c22-6 22-6-7-46-16-21-32-52-35-68-9-43-21-45-55-11-72 71-8 153 97 125zm27-215c19-15 26-30 26-55 0-31-3-34-29-34-33 0-49 15-52 50-6 65 9 75 55 39z" fill="#82566a" data-color="3"></path>
        <path d="M490 1510c-18-11-4-42 17-38 10 2 19 10 21 19 4 19-19 31-38 19z" fill="#82566a" data-color="3"></path>
        <path d="M1290 1510c-18-11-4-42 17-38 10 2 19 10 21 19 4 19-19 31-38 19z" fill="#82566a" data-color="3"></path>
        <path d="M436 1219c-25-90-60-153-108-193-58-47-86-72-73-65 5 3 45 20 87 37 115 48 204 43 332-19 22-10 41-17 43-15s-21 22-50 44c-64 48-97 100-127 200-21 70-23 72-54 72s-33-2-50-61z" fill="#82566a" data-color="3"></path>
        <path d="M45 1259c-4-5-2-22 3-37 6-15 23-70 37-122 35-127 72-187 178-298l89-93-4-54c-5-59-35-105-143-220-68-73-107-150-136-274-22-89-22-94-5-107 24-17 46-7 46 22 0 42 31 177 48 209l16 30 6-37c4-20 12-44 19-52 18-22 66-29 106-16 36 12 115 92 141 142 11 21 22 28 43 28 22 0 34-10 59-49 43-66 103-118 145-126 48-9 94 16 105 58l9 32 17-40c21-49 46-142 46-172 0-27 36-51 53-34 15 15-23 164-63 246-16 33-66 103-111 155-81 94-119 156-119 195 0 40 39 102 115 184 48 52 88 107 106 145 33 71 92 273 84 287-11 17-45 9-54-13-5-13-15-52-21-88-20-109-67-195-159-293-91-97-121-150-121-217 0-51 30-123 66-161l25-26-48-8c-61-10-204-10-265 0l-47 8 34 42c65 79 83 168 48 232-10 17-58 73-106 124-103 108-150 194-169 309-6 41-16 81-21 88-12 15-43 16-52 1z" fill="#82566a" data-color="3"></path>
        <path d="M2386 1894c-3-9-6-28-6-44 0-20-6-31-21-35-46-15-59-104-46-300l7-100-45 90c-24 50-59 121-77 160-34 72-76 128-111 147-12 6-2-11 23-39 23-28 78-120 120-204 43-85 84-154 91-154 10 0 12 27 10 118-2 107-1 117 16 117 17 1 17 1 0 11-15 9-18 18-12 47 9 48 32 92 49 92 20 0 39-78 37-152-2-56 0-68 13-68s15 9 10 48l-6 47 32-37c17-21 36-38 41-38s0 9-12 21c-35 35-61 106-53 142 9 43 6 104-6 128-13 23-45 25-54 3zm45-11c0-10 2-26 4-35 2-12-3-18-15-18-19 0-29 23-22 53 2 9 11 17 18 17 8 0 14-8 15-17zm-1-95c0-19-2-20-10-8-13 19-13 30 0 30 6 0 10-10 10-22z" fill="#b38198" data-color="4"></path>
        <path d="M2586 1894c-11-28-6-62 14-116 11-29 20-63 20-76 0-23 0-23-23 4-13 14-35 28-49 29-14 2-35 6-46 9-11 4-24 0-31-8-11-13-8-16 13-22 13-3 29-3 34 0 11 7 32-37 32-67 0-13-5-28-12-35-9-9-9-12 0-12 23 0 36 45 23 81-15 45-14 51 9 39 27-15 50-62 50-105 0-24 4-35 15-35 17 0 19 9 6 43-6 14-6 29 0 38 5 8 9 9 9 3 0-15 50-64 64-64 6 0 3 5-7 11-9 6-29 32-42 60-22 43-25 57-19 114 5 43 3 74-6 95-13 32-44 41-54 14zm41-65l2-64-19 40c-20 41-25 76-13 89 17 17 28-6 30-65z" fill="#b38198" data-color="4"></path>
        <path d="M779 1863c-11-15-11-16 1-5 8 6 29 12 47 12 26 0 36-6 48-30 25-48 16-142-10-100-3 6-22 10-40 10-27 0-37-6-48-25l-13-26-19 21c-39 43-66 13-58-63 9-75-33-52-63 36-15 45-42 81-31 41 3-11 7-44 9-74 3-47 1-55-14-54-10 1-15-2-12-7s14-9 25-9c18 0 23 12 22 48-1 8 11 2 28-14 24-23 31-25 44-14s15 24 10 63c-7 47-6 49 16 45 16-2 31-19 51-60 31-64 65-92 100-85 21 4 21 4-4 6-58 3-102 105-62 145s79 6 89-77c12-94 24-75 19 30-6 118-21 180-45 193-28 16-75 12-90-7z" fill="#b38198" data-color="4"></path>
        <path d="M3830 1853c-53-19-92-88-92-159 0-100 85-203 250-301l92-55v-72c0-39 3-96 7-126l6-55-46 60c-25 33-63 70-85 83-47 26-128 30-172 7-39-20-71-76-79-138l-6-52-34 60c-75 132-173 205-278 205-73 0-158-48-123-70 9-5 18-3 24 6 6 8 27 17 46 20 46 7 96-25 117-73 22-53 14-155-16-213-23-44-122-183-126-178-2 2-21 50-44 108-84 216-188 356-285 385-86 26-169 14-205-29-18-21-6-34 18-19 61 38 139 14 167-52 17-41 18-115 3-170-10-38-72-138-122-197l-22-27-59 147c-81 204-129 273-203 296-39 12-93-22-116-73-13-29-22-40-25-31-11 34-68 94-106 111-116 53-246-19-271-148l-7-36-31 54c-69 119-116 159-185 159-35 0-45-6-80-45-31-35-45-64-61-123-12-43-21-87-21-98 0-10-19 17-42 61-54 102-134 185-202 208-190 65-366-55-382-259-18-215 144-436 298-409 24 4 57 8 73 10 17 1 34 3 39 4 6 0 5 6-1 12-8 8-6 22 8 53 23 52 24 110 0 161-22 48-38 63-79 71-26 5-36 1-62-24-47-47-38-121 25-197 19-24 35-46 35-49 0-15-70-16-106-1-95 40-135 118-142 283-4 91-1 121 13 158 36 95 116 153 208 154 110 0 176-57 265-233l37-72 6-240c7-251 16-319 64-471 54-176 166-254 247-173l31 30-6 92c-9 148-72 331-214 621-29 61-43 103-43 130 0 68 30 210 53 252 19 33 28 39 59 42 30 3 42-3 70-32 40-41 92-143 141-273 58-154 115-226 218-273 52-23 129-26 169-5 41 21 65 89 50 144-12 46-59 105-101 127-36 18-39 18-39-5 0-12 9-21 25-25 36-9 77-69 82-121 5-39 2-47-25-75-91-90-255 44-292 240-20 104-8 210 28 259 25 35 83 54 120 40 66-25 152-153 152-227 0-18 5-53 11-77 11-42 12-43 40-33 21 7 28 15 24 27-39 126-29 265 21 277 37 9 68-9 101-58 39-57 105-213 133-315 21-73 22-86 10-122-27-84 43-189 81-119 9 16 9 37 0 89-15 81-15 80 84 204 90 112 106 144 112 220 4 50 0 68-20 107s-21 45-6 38c62-34 187-259 229-414 20-76 22-92 11-122-30-83 42-193 80-122 9 16 9 37 0 89-15 81-12 89 85 204 86 102 108 151 109 235 0 50-5 74-22 103-21 34-21 37-4 27 56-29 159-202 215-360 33-91 75-170 91-170 22 0 24 12 9 53-25 70-56 268-49 315 16 107 64 154 136 133 74-22 171-173 209-326 20-78 56-182 70-198 4-4 14-5 22-2 13 5 13 13 2 63-38 163-77 532-57 532 19 0 133-130 166-188 17-31 49-93 69-137 21-44 44-81 53-83 22-5 19 9-27 110-68 152-136 249-217 311-49 37-50 39-56 105-9 94-41 227-70 289-26 57-94 137-136 159-28 14-90 18-119 7zm131-59c52-50 95-177 114-336 5-38 4-58-3-58-6 0-46 27-89 59-145 110-214 239-169 320 31 55 98 62 147 15zM1410 858c24-39 27-125 6-154-14-19-15-18-41 6-68 62-76 180-14 180 22 0 34-8 49-32zm354-115c87-174 169-401 187-517 12-77 7-121-18-148-63-69-147 64-188 297-16 92-33 435-22 435 4 0 22-30 41-67z" fill="#b38198" data-color="4"></path>
        <path d="M760 1832c0-27 21-52 45-52 13 0 26 4 29 8 2 4-7 8-22 7-18 0-30 8-39 25-7 14-13 19-13 12z" fill="#b38198" data-color="4"></path>
        <path d="M245 1785c-16-7-41-23-55-34l-24-19-23 24c-12 13-27 24-32 24-6 0 2-12 16-26 30-30 21-45-27-47-42-2-61 23-41 54 11 19 11 21-4 15-9-3-19-6-21-6s-4-14-4-30c0-41 35-58 85-43l35 11-2-111c-3-138 13-179 76-208 53-24 77-24 110 2 27 21 35 69 17 98-5 8-7-4-4-32 5-40 3-47-21-62-49-32-120 0-144 65-5 14-8 80-7 148l2 123 38 27c46 33 103 36 136 7 29-26 51-81 43-107-4-14-2-18 5-14 6 4 11 24 11 45 0 49-30 87-78 101-46 12-50 12-87-5z" fill="#b38198" data-color="4"></path>
        <path d="M972 1744c-32-22-31-102 1-132 30-29 44-28 17 0-11 12-20 33-20 46 0 21 4 23 28 19l27-6-27 12c-16 6-28 16-28 22 0 13 28 40 50 48 11 4 9 6-5 6-11 1-31-6-43-15z" fill="#b38198" data-color="4"></path>
        <path d="M1360 1730c-22-23-29-27-34-15-8 21-62 20-70-1-5-14-10-13-31 10-29 32-39 32-66 5-17-17-20-29-15-60 5-33 4-39-12-39-10 0-23 12-30 28-10 23-10 24-5 2 4-14 6-42 5-62-1-21 2-38 8-38 10 0 14 14 11 38-3 22 31 27 47 6 14-19 15-19 7 1-4 11-10 41-12 67-5 39-2 49 12 54 28 11 48-9 75-74 28-68 46-93 33-47-4 17-8 48-8 70 0 33 3 40 20 40 14 0 27-16 47-55 29-60 61-85 90-69 27 14 22 54-8 78-15 12-33 21-40 21-20 0-17 24 6 45 27 25 63 8 89-42 11-21 20-34 21-30 0 17-31 67-52 81-33 23-57 20-88-14zm58-66c25-17 29-59 7-68-21-8-55 29-55 59 0 29 16 32 48 9z" fill="#b38198" data-color="4"></path>
        <path d="M1665 1748c-70-38-56-134 25-168 27-11 30-16 30-60 0-51 28-100 58-100 13 0 12 3-5 15-25 17-40 75-26 99 8 14 12 13 41-4 18-11 39-35 47-53 8-17 14-26 15-19 0 26-33 70-66 86-19 8-34 23-34 31 0 22 45 109 65 125 16 13 21 11 47-20 35-42 45-77 30-101-10-15-9-17 3-13 31 12 11 88-34 128-24 22-19 36 15 36 13 0 24 5 24 10 0 12-6 12-51 0-28-8-45-7-72 5-42 18-84 19-112 3zm132-22c4-3-3-16-14-29-25-27-53-81-53-102 0-18-5-19-33-3-33 17-46 39-47 79 0 38 20 64 55 71 21 4 83-6 92-16z" fill="#b38198" data-color="4"></path>
        <path d="M3180 1740c-11-11-20-26-20-32 0-7-11 0-25 15-31 32-46 34-70 7-13-15-16-30-12-60 7-58-22-55-46 4s-42 74-69 57c-16-10-23-10-36 1-14 12-14 11 0-12 9-14 18-37 22-52 5-23 4-26-11-21-17 6-17 5 0-14 23-26 22-42-5-53-16-6-18-9-7-9 26-1 35 20 37 83 2 32 5 62 8 67 19 32 74-74 66-129-2-20 0-32 7-32 6 0 11 14 11 30 0 23 4 30 20 30 10 0 24-8 30-17 10-16 11-16 4 2-4 11-9 41-12 67-3 39-1 49 13 55 26 9 48-9 66-56 8-23 23-50 32-61 20-24 65-26 74-4 8 22-8 66-27 72-12 4-11 1 3-15 26-30 22-63-8-63-40 0-65 73-27 83 16 4 16 5 0 6-21 1-22 5-8 30 24 45 69 32 100-29 14-28 20-59 20-107 0-83 14-137 42-163 17-16 24-17 36-8 21 18 8 88-29 168-25 53-29 73-24 107 3 24 11 46 17 49 25 16 78-86 78-149 0-14 5-29 10-32 6-4 10 6 10 24 0 17 11 42 26 61 15 17 27 44 28 60 1 35 11 30 36-21 11-21 23-39 26-39 13 0-43 85-68 103-23 17-31 18-50 8-13-6-16-10-7-7 40 11 53-60 19-104-18-24-19-24-26-5-40 118-98 151-119 68l-6-26-19 31c-33 53-76 66-110 32zm206-275c6-43 5-47-12-43-26 4-43 59-43 133l1 60 24-51c13-28 27-72 30-99z" fill="#b38198" data-color="4"></path>
        <path d="M2695 1736c20-15 20-15-2-16-12 0-24 5-26 10-3 6-4 5-3-2s17-14 35-16c39-4 59-41 43-84-8-21-7-25 4-21 20 7 27 44 15 77-16 40-14 48 8 37 10-6 29-32 41-58 24-52 47-83 63-83 6 0 2 9-8 20-27 30-32 105-9 132 19 21 19 21-3 9-12-6-26-19-32-28-9-17-11-16-30 1-11 10-31 20-45 21-13 2-35 6-48 10-22 7-23 7-3-9z" fill="#b38198" data-color="4"></path>
        <path d="M1911 1738c2-2 19-16 38-33 28-25 32-26 22-8-11 21-40 43-57 43-4 0-5-1-3-2z" fill="#b38198" data-color="4"></path>
        <path d="M460 1710c-9-16-9-34 0-71 13-55 34-80 23-27-4 18-8 49-8 68 0 28 4 35 20 35 14 0 29-16 47-50 33-61 37-48 4 15-26 53-66 67-86 30z" fill="#b38198" data-color="4"></path>
        <path d="M1038 1635c3-17-1-31-9-37-12-8-11-9 1-5 18 4 26 45 12 59-6 6-8 0-4-17z" fill="#b38198" data-color="4"></path>
        <path d="M484 1499c-3-6-2-15 3-20 13-13 43-1 43 17 0 16-36 19-46 3z" fill="#b38198" data-color="4"></path>
        <path d="M1284 1499c-3-6-1-16 4-21 13-13 45 8 36 23-7 12-31 11-40-2z" fill="#b38198" data-color="4"></path>
        <path d="M457 1273c-3-4-10-28-17-53-22-83-60-148-115-198l-54-49 72 28c53 21 90 28 139 29 63 0 82-5 213-55 14-5 13-2-5 10-82 58-117 110-154 225-18 57-24 65-48 68-14 2-28 0-31-5z" fill="#b38198" data-color="4"></path>
        <path d="M58 1259c-14-8-11-23 19-126 46-158 82-222 177-318 98-99 111-126 92-190-16-52-35-79-134-188-83-91-104-131-137-263C53 89 52 74 64 62c27-27 41-7 53 77 14 93 54 194 60 151 9-62 54-95 116-83 36 7 92 56 133 119 29 44 41 54 64 54 22 0 35-11 66-57 55-80 103-116 154-116 45 0 86 30 92 67 5 32 47-65 61-139 12-68 22-85 48-85 25 0 24 9-7 115-31 109-77 198-124 245-3 3-29 34-59 69-125 147-123 193 19 346 95 102 119 149 166 313 29 103 30 113 15 122-28 14-37 0-59-97-29-128-65-195-148-283-39-41-83-94-98-118-51-81-44-174 18-255l33-43-56-13c-74-17-172-17-244 1l-58 14 26 29c61 68 89 167 66 228-6 14-53 70-105 126-52 55-106 119-120 143-23 41-57 150-70 230-7 39-23 51-48 37z" fill="#b38198" data-color="4"></path>
        <path d="M2381 1872c-1-7 4-22 9-33 9-16 7-19-8-19-28 0-63-56-71-113-3-29-1-97 5-152l11-100 2 135c1 142 16 201 52 208 27 5 50-73 43-145-4-40-3-63 5-67 8-5 9 5 6 34-8 58 3 67 31 26 36-53 39-44 4 11-18 28-30 60-30 81 0 18-4 31-9 28-4-3-13 6-19 19-12 25-7 30 26 26 6-1 12 6 11 16 0 10-3 13-5 7-8-20-42-3-53 25-5 14-10 20-10 13z" fill="#eb9dc4" data-color="5"></path>
        <path d="M3828 1849c-43-16-88-93-88-152 0-68 23-111 99-187 52-51 182-142 231-162 4-2 10-64 14-138l8-135-27 40c-65 96-121 135-197 135-90 0-140-52-156-163l-7-48-39 67c-56 98-130 168-196 188-30 9-66 16-82 16-51 0-143-50-119-64 5-3 22 1 37 9 38 19 69 19 104-1 43-26 60-64 60-136 0-87-14-128-66-201-24-34-52-74-62-89-9-16-20-28-24-28s-16 24-27 53c-72 188-132 298-202 368-71 73-143 99-228 81-56-12-98-39-83-54 5-5 22-1 38 8 38 21 91 13 127-20 35-32 51-115 37-183-12-57-63-146-119-212l-37-43-59 148c-65 161-117 249-163 276-60 36-143 3-157-63-8-37-16-36-39 2-49 84-130 119-217 96-75-20-119-67-140-152l-12-46-38 68c-51 94-116 153-167 153-20 0-48-7-60-16-47-33-87-122-107-239l-7-40-35 70c-85 171-173 238-308 238-120 0-201-49-245-147-50-111-46-238 11-350 49-97 153-188 195-172 10 4 12 2 8-6-9-15 83-3 102 13 11 9 18 8 29-1 17-14 39-4 28 13-10 15-11 57-2 51 9-5 29 51 29 81 0 79-70 165-122 150-46-14-58-35-58-95 0-49 5-63 33-100 17-24 37-49 42-57 13-17-9-33-48-33-72 0-147 67-181 161-26 72-27 246-2 304 9 21 24 47 32 57 9 9 13 22 9 28-3 6-3 9 2 8 4-2 24 7 43 19 122 75 243 42 329-90 22-34 53-91 69-127 29-64 30-67 35-295 4-180 9-251 25-326 30-136 76-253 117-294 54-55 95-66 145-40 41 21 52 65 42 166-16 150-68 295-213 595-44 91-48 134-25 265 20 110 56 169 104 169 53 0 149-142 197-292 61-186 192-318 317-318 81 0 128 47 128 129 0 41-6 57-33 91-39 52-82 79-97 64-8-8-1-17 24-32 76-45 102-147 50-199-22-22-32-25-74-21-63 6-111 39-154 103-52 79-68 131-74 236-7 143 27 220 104 235 95 18 186-98 212-269 6-38 13-71 16-74 2-3 14-2 26 2 18 6 21 12 16 33-15 61-17 217-4 242 20 37 76 40 110 5 48-48 116-197 163-358 21-72 22-82 9-113-17-39-6-101 22-129 40-39 63 9 50 104l-10 71 37 52c20 29 52 69 70 88 47 49 70 87 61 101-4 7-3 9 3 6 20-12 35 51 32 125-3 58-9 80-29 108l-25 35 29-19c16-10 45-35 63-55 40-42 132-225 165-326 20-64 23-90 19-208-2-82 53-129 79-66 10 23 10 39 1 68-16 55-14 92 8 125 11 17 18 34 15 38-3 5-1 7 4 6 5-2 34 24 63 57 90 103 126 213 95 287-9 21-16 41-17 45 0 5-10 19-22 32l-22 25 31-22c17-12 35-18 39-14 5 4 5 2 2-5-4-6-3-13 1-15 17-6 84-102 114-162 17-33 46-101 65-151 40-103 78-181 93-190 19-11 22 24 7 67-25 69-50 232-45 285 10 103 61 162 129 149 81-15 179-158 218-316 30-124 69-220 87-213 17 6 17 22 0 98-34 143-71 498-53 497 15-1 83-66 127-122 24-30 68-106 97-167 65-134 102-159 48-32-63 145-104 210-192 297l-83 82-10 73c-15 116-35 198-65 264-15 35-32 60-38 56-6-3-7-1-3 5 9 15-57 86-98 106-38 18-77 19-118 5zm130-54c22-19 43-31 47-27 5 4 5 2 2-4-4-6 5-39 18-72 27-67 58-225 53-273l-3-29-55 37c-77 51-172 149-198 204-31 64-29 129 4 168 37 44 81 43 132-4zM1385 894c8-4 22-19 30-35 18-35 19-138 1-161-12-16-14-16-33 2-12 10-24 17-27 14-3-2-4-1-1 2 2 4-4 19-14 33s-22 45-26 68c-5 34-3 45 14 62 22 22 30 25 56 15zm395-178c185-394 233-656 120-656-100 0-179 276-180 623 0 75 2 137 6 137 3 0 27-47 54-104z" fill="#eb9dc4" data-color="5"></path>
        <path d="M887 1762c2-42 7-90 13-107 7-23 9-7 6 68-2 54-7 102-12 107s-8-23-7-68z" fill="#eb9dc4" data-color="5"></path>
        <path d="M2591 1826c-2-17 22-85 28-82 3 2 7-12 9-31 2-28-1-34-13-29-13 4-14 2-5-14 5-10 10-32 10-49 0-16 5-33 11-37 8-5 9 9 5 47l-7 54 31-35 31-35-24 40c-27 45-27 44-27 86 0 16-4 28-9 25s-16 11-24 32c-9 20-16 33-16 28z" fill="#eb9dc4" data-color="5"></path>
        <path d="M2108 1780c18-18 44-55 58-82 14-28 28-48 30-45 6 6-42 94-65 120-9 11-25 24-36 30s-6-4 13-23z" fill="#eb9dc4" data-color="5"></path>
        <path d="M42 1768c-17-17-15-43 5-59 15-13 15-12 4 9-8 16-9 27-1 42 12 23 9 25-8 8z" fill="#eb9dc4" data-color="5"></path>
        <path d="M350 1774c0-4 8-14 18-23s23-32 29-51c8-25 11-29 12-13 2 33-16 71-39 83-11 6-20 8-20 4z" fill="#eb9dc4" data-color="5"></path>
        <path d="M976 1739c-20-16-26-29-26-59 0-21 5-42 11-46 7-4 9 0 5 14-4 11-2 23 4 27 6 3 8 11 5 16-11 18 6 48 33 58 15 5 20 10 11 10-9 1-28-8-43-20z" fill="#eb9dc4" data-color="5"></path>
        <path d="M1659 1737c-49-33-52-81-7-122 18-17 27-23 20-14-13 17-46 107-36 96 4-3 15 5 26 18 11 14 34 29 51 34 30 9 30 9 6 10-14 1-41-9-60-22z" fill="#eb9dc4" data-color="5"></path>
        <path d="M3473 1735c18-19 23-21 25-8 4 16-14 33-35 33-6 0-2-11 10-25z" fill="#eb9dc4" data-color="5"></path>
        <path d="M147 1723c2-15 4-78 4-138 0-94 3-116 20-144 11-18 23-31 26-27 3 3-2 17-11 30-13 20-15 49-14 151 2 102-1 128-14 141-14 14-15 13-11-13z" fill="#eb9dc4" data-color="5"></path>
        <path d="M786 1734c-9-8-16-20-16-25 0-6-4-8-10-4-8 5 25-82 36-94 2-3 1 16-2 41-7 53 6 85 38 91 20 4 20 4-4 6-15 0-34-6-42-15z" fill="#eb9dc4" data-color="5"></path>
        <path d="M1161 1729c-23-24-27-55-11-79 7-11 8-6 4 16-5 25-1 37 16 54 12 12 19 24 17 26-3 3-14-5-26-17z" fill="#eb9dc4" data-color="5"></path>
        <path d="M1368 1733c-26-30-30-60-13-93 8-16 18-30 21-30 2 0 0 8-5 18-15 29-10 79 11 102 10 11 15 20 10 20s-16-8-24-17z" fill="#eb9dc4" data-color="5"></path>
        <path d="M3177 1732c-10-10-17-24-17-31s-4-9-10-6c-17 10 21-69 43-90l21-20-18 23c-23 27-28 89-9 120 16 27 12 29-10 4z" fill="#eb9dc4" data-color="5"></path>
        <path d="M602 1678c5-35 6-69 3-76-2-7 0-10 5-7 6 3 10 20 10 36 0 19 4 28 11 23 6-3 4 8-5 24-9 17-16 38-16 47 0 8-4 15-8 15-5 0-5-28 0-62z" fill="#eb9dc4" data-color="5"></path>
        <path d="M1820 1734c-23-7-80-96-83-131-1-22-6-29-16-25s-12 1-6-9c5-8 8-27 6-42-3-33 17-87 32-87 7 0 7 4-1 12-14 14-16 98-3 98 5 0 7 9 4 20-8 29 44 129 72 140 45 17 40 36-5 24z" fill="#eb9dc4" data-color="5"></path>
        <path d="M2529 1714c13-17 21-42 22-68 0-35 2-38 9-18 5 12 7 30 4 40-12 36-27 61-41 66-9 4-7-4 6-20z" fill="#eb9dc4" data-color="5"></path>
        <path d="M2710 1734c0-4 7-12 15-18s19-31 24-56l9-45 1 41c1 28-5 47-19 62-21 22-30 27-30 16z" fill="#eb9dc4" data-color="5"></path>
        <path d="M2829 1716c-7-14-16-26-21-26s1-18 12-40c23-45 33-52 25-17-12 45-12 62-3 80 5 10 7 21 4 24s-11-6-17-21z" fill="#eb9dc4" data-color="5"></path>
        <path d="M3060 1719c-12-22-5-95 10-104 5-3 5 9 0 26-11 39-4 76 19 89 15 9 15 9-1 10-10 0-22-9-28-21z" fill="#eb9dc4" data-color="5"></path>
        <path d="M3333 1728c-25-40-28-58-21-150 4-54 12-106 17-116 9-13 10-11 6 13-3 17-7 56-9 88-3 52-2 56 13 45 13-10 14-10 4 2-16 17-17 84-3 111 12 21 6 26-7 7z" fill="#eb9dc4" data-color="5"></path>
        <path d="M467 1723c-9-9-8-83 2-108 5-12 8 6 7 48-1 37-1 67-2 67 0 0-4-3-7-7z" fill="#eb9dc4" data-color="5"></path>
        <path d="M695 1720c-7-11-2-110 5-103 5 4 8 113 3 113-1 0-4-4-8-10z" fill="#eb9dc4" data-color="5"></path>
        <path d="M1261 1717c-6-8-8-17-4-20 3-4 1-7-5-7-7 0-6-15 5-45 8-25 16-45 16-45 1 0 2 29 2 65s-1 65-1 65c-1 0-7-6-13-13z" fill="#eb9dc4" data-color="5"></path>
        <path d="M2928 1718c-3-31-3-86 2-82 6 6 9 94 4 94-2 0-5-6-6-12z" fill="#eb9dc4" data-color="5"></path>
        <path d="M3480 1670c-7-17-20-36-29-43s-16-22-16-34c0-30 10-37 13-8 1 13 13 40 27 61 14 20 25 41 25 45 0 17-8 9-20-21z" fill="#eb9dc4" data-color="5"></path>
        <path d="M3014 1597l-2-42 11 33c6 20 6 36 1 42-5 5-10-8-10-33z" fill="#eb9dc4" data-color="5"></path>
        <path d="M1103 1594c-3-8-1-20 6-27 8-8 11-4 11 16 0 30-7 35-17 11z" fill="#eb9dc4" data-color="5"></path>
        <path d="M445 1231c-15-89-83-197-151-240-18-12-18-12 1-6 11 4 42 16 70 26 67 26 174 25 251-1l59-20-44 41c-46 44-82 112-103 191-11 45-14 48-44 48s-33-3-39-39z" fill="#eb9dc4" data-color="5"></path>
        <path d="M50 1254c0-13 32-132 52-193 31-95 77-166 166-257 87-89 101-120 81-181-15-47-45-89-132-184-78-85-108-141-137-254C56 87 55 64 76 56c9-4 18-5 20-3s11 42 19 89 19 98 25 113 7 32 3 38c-3 7-3 9 2 5 4-4 14 0 21 10 12 16 13 15 14-6 0-31 25-78 45-86 61-23 123 7 180 89 56 78 75 100 75 85 0-6 6-10 13-7 19 7 28 0 77-71s92-102 141-102c45 0 77 23 87 63l9 32 22-50c12-27 28-80 35-116 15-75 21-89 41-89 26 0 25 18-6 121-37 126-55 157-159 279-87 103-110 143-110 197 0 51 22 89 105 178 92 98 125 158 164 300 37 132 37 137 9 133-20-3-25-14-40-84-18-91-50-174-83-219-13-16-52-60-87-96-36-37-75-88-88-114-42-87-24-190 44-255l27-24-58-14c-74-19-192-19-264-1l-57 14 39 45c46 52 74 134 64 183-10 44-35 77-135 182-99 103-131 164-155 287-8 44-17 84-21 89-6 10-44 13-44 3z" fill="#eb9dc4" data-color="5"></path>
        <path d="M2779 1260c-8-6-8-9 0-14 6-4 11-2 11 4s4 9 9 5c5-3 12-2 15 3 6 10-19 11-35 2z" fill="#ebc4d4" data-color="6"></path>
    </g>
</svg>